<svg width="352" height="36" viewBox="0 0 352 36" fill="none" xmlns="http://www.w3.org/2000/svg">
<path d="M0 0.103152C0.444005 1.84416 1.34829 3.4334 2.61788 4.70394C3.88747 5.97448 5.47552 6.87944 7.21523 7.32378H18.5534L19.0688 7.42693V35.8968H26.0779V7.53009L26.7994 7.22063H38.1376C39.8725 6.76634 41.4552 5.85805 42.7233 4.58907C43.9913 3.32008 44.8989 1.73616 45.3529 0L0 0V0.103152ZM245.936 0.103152H238.927V36H271.086C272.61 35.4235 273.97 34.4831 275.048 33.2606C276.126 32.0382 276.889 30.5706 277.271 28.9857H246.039V0L245.936 0.103152ZM192.028 7.11748C195.739 6.08596 198.831 3.19771 199.656 0L160.384 0.103152V21.3524H192.44V28.7794H167.29C165.37 29.2793 163.578 30.1814 162.032 31.4262C160.486 32.6709 159.222 34.2299 158.323 36H199.449V14.3381H167.29V7.11748H192.028ZM311.801 36H318.707V21.5587H344.063V36H350.969V14.3381H311.801V36ZM87.9227 7.22063H114.722C116.486 6.80314 118.101 5.90896 119.391 4.63566C120.682 3.36236 121.598 1.75883 122.04 0L80.7075 0C81.1412 1.74595 82.0421 3.34065 83.3133 4.61282C84.5845 5.88498 86.1781 6.78653 87.9227 7.22063ZM87.9227 21.4556H114.722C116.486 21.0381 118.101 20.1439 119.391 18.8706C120.682 17.5973 121.598 15.9938 122.04 14.235H80.7075C81.1412 15.9809 82.0421 17.5756 83.3133 18.8478C84.5845 20.1199 86.1781 21.0215 87.9227 21.4556ZM87.9227 36H114.722C116.486 35.5825 118.101 34.6883 119.391 33.415C120.682 32.1417 121.598 30.5382 122.04 28.7794H80.7075C81.1412 30.5253 82.0421 32.12 83.3133 33.3922C84.5845 34.6643 86.1781 35.5659 87.9227 36ZM317.985 7.22063H344.785C346.529 6.78653 348.123 5.88498 349.394 4.61282C350.665 3.34065 351.566 1.74595 352 0L310.77 0C311.204 1.74595 312.105 3.34065 313.376 4.61282C314.647 5.88498 316.241 6.78653 317.985 7.22063Z" fill="#FF3D3D"/>
</svg>
