<svg width="31" height="31" viewBox="0 0 31 31" fill="none" xmlns="http://www.w3.org/2000/svg">
<g clip-path="url(#clip0_270_32)">
<path d="M21 6.5C21 9.53757 18.5376 12 15.5 12C12.4624 12 10 9.53757 10 6.5C10 3.46243 12.4624 1 15.5 1C18.5376 1 21 3.46243 21 6.5Z" stroke="white" stroke-width="1.8"/>
<path d="M29.3928 19.6562C27.4899 25.7337 21.9751 30.0999 15.4999 30.0999C9.02475 30.0999 3.50996 25.7337 1.60708 19.6562C1.29982 18.6749 1.56621 17.7706 2.1947 17.0801C2.83757 16.3738 3.86129 15.8999 4.99995 15.8999H25.9999C27.1386 15.8999 28.1623 16.3738 28.8051 17.0801C29.4336 17.7706 29.7 18.6749 29.3928 19.6562Z" stroke="white" stroke-width="1.8"/>
</g>
<defs>
<clipPath id="clip0_270_32">
<rect width="31" height="31" fill="white"/>
</clipPath>
</defs>
</svg>
